{
  "accessors": [
    {
      "bufferView": 2,
      "componentType": 5126,
      "count": 65532,
      "max": [
        2.630794048309326,
        1.9285540580749512,
        2.265169858932495
      ],
      "min": [
        -2.415604829788208,
        -1.5395395755767822,
        -3.0178844928741455
      ],
      "type": "VEC3"
    },
    {
      "bufferView": 2,
      "byteOffset": 786384,
      "componentType": 5126,
      "count": 65532,
      "max": [
        0.9999090433120728,
        0.9999810457229614,
        0.9999927878379822
      ],
      "min": [
        -0.9999622702598572,
        -0.9999859929084778,
        -0.9999916553497314
      ],
      "type": "VEC3"
    },
    {
      "bufferView": 1,
      "componentType": 5126,
      "count": 65532,
      "max": [
        0.989264190196991,
        0.9943897724151611
      ],
      "min": [
        0.0011030366877093911,
        0.0003244225517846644
      ],
      "type": "VEC2"
    },
    {
      "bufferView": 0,
      "componentType": 5125,
      "count": 292836,
      "type": "SCALAR"
    },
    {
      "bufferView": 2,
      "byteOffset": 1572768,
      "componentType": 5126,
      "count": 65532,
      "max": [
        2.6806135177612305,
        1.941687822341919,
        2.27543306350708
      ],
      "min": [
        -2.3151204586029053,
        -1.5033109188079834,
        -3.0664827823638916
      ],
      "type": "VEC3"
    },
    {
      "bufferView": 2,
      "byteOffset": 2359152,
      "componentType": 5126,
      "count": 65532,
      "max": [
        0.9999942183494568,
        0.9999980926513672,
        0.999987006187439
      ],
      "min": [
        -0.9999883770942688,
        -0.9999977946281433,
        -0.9999912977218628
      ],
      "type": "VEC3"
    },
    {
      "bufferView": 1,
      "byteOffset": 524256,
      "componentType": 5126,
      "count": 65532,
      "max": [
        0.9970144033432007,
        0.9926459789276123
      ],
      "min": [
        0.00019465351942926645,
        6.488450890174136e-05
      ],
      "type": "VEC2"
    },
    {
      "bufferView": 0,
      "byteOffset": 1171344,
      "componentType": 5125,
      "count": 282741,
      "type": "SCALAR"
    },
    {
      "bufferView": 2,
      "byteOffset": 3145536,
      "componentType": 5126,
      "count": 65532,
      "max": [
        2.6610770225524902,
        1.94114089012146,
        2.2773728370666504
      ],
      "min": [
        -2.309525728225708,
        -1.4931225776672363,
        -3.069255828857422
      ],
      "type": "VEC3"
    },
    {
      "bufferView": 2,
      "byteOffset": 3931920,
      "componentType": 5126,
      "count": 65532,
      "max": [
        0.9999983310699463,
        0.9999955892562866,
        0.9999856948852539
      ],
      "min": [
        -0.9999884366989136,
        -0.9999977946281433,
        -0.999999463558197
      ],
      "type": "VEC3"
    },
    {
      "bufferView": 1,
      "byteOffset": 1048512,
      "componentType": 5126,
      "count": 65532,
      "max": [
        0.9971238374710083,
        0.991718590259552
      ],
      "min": [
        6.488450890174136e-05,
        0.0003244225517846644
      ],
      "type": "VEC2"
    },
    {
      "bufferView": 0,
      "byteOffset": 2302308,
      "componentType": 5125,
      "count": 271809,
      "type": "SCALAR"
    },
    {
      "bufferView": 2,
      "byteOffset": 4718304,
      "componentType": 5126,
      "count": 65532,
      "max": [
        2.6247599124908447,
        1.9359617233276367,
        2.2478935718536377
      ],
      "min": [
        -2.4414753913879395,
        -1.5695409774780273,
        -3.071953296661377
      ],
      "type": "VEC3"
    },
    {
      "bufferView": 2,
      "byteOffset": 5504688,
      "componentType": 5126,
      "count": 65532,
      "max": [
        0.9999991655349731,
        1.0,
        0.9999978542327881
      ],
      "min": [
        -0.9999961853027344,
        -0.9999966621398926,
        -0.9999912977218628
      ],
      "type": "VEC3"
    },
    {
      "bufferView": 1,
      "byteOffset": 1572768,
      "componentType": 5126,
      "count": 65532,
      "max": [
        0.9976611733436584,
        0.9995712041854858
      ],
      "min": [
        0.0003244225517846644,
        6.488450890174136e-05
      ],
      "type": "VEC2"
    },
    {
      "bufferView": 0,
      "byteOffset": 3389544,
      "componentType": 5125,
      "count": 241794,
      "type": "SCALAR"
    },
    {
      "bufferView": 2,
      "byteOffset": 6291072,
      "componentType": 5126,
      "count": 65532,
      "max": [
        2.6806135177612305,
        1.942840814590454,
        2.27543306350708
      ],
      "min": [
        -2.4153029918670654,
        -1.5388457775115967,
        -3.071221113204956
      ],
      "type": "VEC3"
    },
    {
      "bufferView": 2,
      "byteOffset": 7077456,
      "componentType": 5126,
      "count": 65532,
      "max": [
        0.9999890327453613,
        1.0,
        0.999934732913971
      ],
      "min": [
        -0.999992311000824,
        -0.9999966621398926,
        -0.999999463558197
      ],
      "type": "VEC3"
    },
    {
      "bufferView": 1,
      "byteOffset": 2097024,
      "componentType": 5126,
      "count": 65532,
      "max": [
        0.999525249004364,
        0.9995487928390503
      ],
      "min": [
        0.0004541915550362319,
        6.488450890174136e-05
      ],
      "type": "VEC2"
    },
    {
      "bufferView": 0,
      "byteOffset": 4356720,
      "componentType": 5125,
      "count": 180939,
      "type": "SCALAR"
    },
    {
      "bufferView": 2,
      "byteOffset": 7863840,
      "componentType": 5126,
      "count": 10709,
      "max": [
        2.480574131011963,
        1.9436395168304443,
        2.2674522399902344
      ],
      "min": [
        -2.260108232498169,
        -1.5038869380950928,
        -3.0708281993865967
      ],
      "type": "VEC3"
    },
    {
      "bufferView": 2,
      "byteOffset": 7992348,
      "componentType": 5126,
      "count": 10709,
      "max": [
        0.9999983310699463,
        0.9998798370361328,
        0.9997145533561707
      ],
      "min": [
        -0.999987006187439,
        -0.9999895691871643,
        -0.9999399781227112
      ],
      "type": "VEC3"
    },
    {
      "bufferView": 1,
      "byteOffset": 2621280,
      "componentType": 5126,
      "count": 10709,
      "max": [
        0.9994869828224182,
        0.9975765347480774
      ],
      "min": [
        0.0004541915550362319,
        6.488450890174136e-05
      ],
      "type": "VEC2"
    },
    {
      "bufferView": 0,
      "byteOffset": 5080476,
      "componentType": 5125,
      "count": 21627,
      "type": "SCALAR"
    },
    {
      "bufferView": 2,
      "byteOffset": 8120856,
      "componentType": 5126,
      "count": 65532,
      "max": [
        2.4731485843658447,
        1.8742949962615967,
        2.2061681747436523
      ],
      "min": [
        -2.3452835083007813,
        -1.5664725303649902,
        -2.935316324234009
      ],
      "type": "VEC3"
    },
    {
      "bufferView": 2,
      "byteOffset": 8907240,
      "componentType": 5126,
      "count": 65532,
      "max": [
        0.9999991655349731,
        0.9999942779541016,
        0.9999858140945435
      ],
      "min": [
        -0.9999954700469971,
        -0.9999998807907104,
        -0.9999814033508301
      ],
      "type": "VEC3"
    },
    {
      "bufferView": 1,
      "byteOffset": 2706952,
      "componentType": 5126,
      "count": 65532,
      "max": [
        0.9931576251983643,
        0.9944961667060852
      ],
      "min": [
        0.0010693720541894436,
        0.00024813416530378163
      ],
      "type": "VEC2"
    },
    {
      "bufferView": 0,
      "byteOffset": 5166984,
      "componentType": 5125,
      "count": 291813,
      "type": "SCALAR"
    },
    {
      "bufferView": 2,
      "byteOffset": 9693624,
      "componentType": 5126,
      "count": 65532,
      "max": [
        2.493180274963379,
        1.9192500114440918,
        2.1666555404663086
      ],
      "min": [
        -2.356574773788452,
        -1.4649629592895508,
        -2.983900785446167
      ],
      "type": "VEC3"
    },
    {
      "bufferView": 2,
      "byteOffset": 10480008,
      "componentType": 5126,
      "count": 65532,
      "max": [
        0.9999948143959045,
        0.9999979138374329,
        0.9999895095825195
      ],
      "min": [
        -0.9999963641166687,
        -0.9999995827674866,
        -0.9999985098838806
      ],
      "type": "VEC3"
    },
    {
      "bufferView": 1,
      "byteOffset": 3231208,
      "componentType": 5126,
      "count": 65532,
      "max": [
        0.9987931847572327,
        0.998469352722168
      ],
      "min": [
        0.0004544274415820837,
        0.00032459100475534797
      ],
      "type": "VEC2"
    },
    {
      "bufferView": 0,
      "byteOffset": 6334236,
      "componentType": 5125,
      "count": 281403,
      "type": "SCALAR"
    },
    {
      "bufferView": 2,
      "byteOffset": 11266392,
      "componentType": 5126,
      "count": 65532,
      "max": [
        2.69092059135437,
        1.9071903228759766,
        2.2664201259613037
      ],
      "min": [
        -2.4024531841278076,
        -1.5743684768676758,
        -3.1075897216796875
      ],
      "type": "VEC3"
    },
    {
      "bufferView": 2,
      "byteOffset": 12052776,
      "componentType": 5126,
      "count": 65532,
      "max": [
        0.9999963045120239,
        0.9999909400939941,
        0.9999405145645142
      ],
      "min": [
        -0.9999963641166687,
        -0.999997615814209,
        -0.9999979138374329
      ],
      "type": "VEC3"
    },
    {
      "bufferView": 1,
      "byteOffset": 3755464,
      "componentType": 5126,
      "count": 65532,
      "max": [
        0.9992334246635437,
        0.9991716146469116
      ],
      "min": [
        6.491820386145264e-05,
        6.491820386145264e-05
      ],
      "type": "VEC2"
    },
    {
      "bufferView": 0,
      "byteOffset": 7459848,
      "componentType": 5125,
      "count": 270693,
      "type": "SCALAR"
    },
    {
      "bufferView": 2,
      "byteOffset": 12839160,
      "componentType": 5126,
      "count": 65532,
      "max": [
        2.6451668739318848,
        1.9355189800262451,
        2.261434555053711
      ],
      "min": [
        -2.3863394260406494,
        -1.5339407920837402,
        -3.0722994804382324
      ],
      "type": "VEC3"
    },
    {
      "bufferView": 2,
      "byteOffset": 13625544,
      "componentType": 5126,
      "count": 65532,
      "max": [
        0.9999991059303284,
        0.9999979138374329,
        0.9999858140945435
      ],
      "min": [
        -0.9999993443489075,
        -0.9999998807907104,
        -0.9999909400939941
      ],
      "type": "VEC3"
    },
    {
      "bufferView": 1,
      "byteOffset": 4279720,
      "componentType": 5126,
      "count": 65532,
      "max": [
        0.9995028972625732,
        0.9995779991149902
      ],
      "min": [
        0.0007141002570278943,
        6.491820386145264e-05
      ],
      "type": "VEC2"
    },
    {
      "bufferView": 0,
      "byteOffset": 8542620,
      "componentType": 5125,
      "count": 239559,
      "type": "SCALAR"
    },
    {
      "bufferView": 2,
      "byteOffset": 14411928,
      "componentType": 5126,
      "count": 62301,
      "max": [
        2.651977300643921,
        1.9436395168304443,
        2.2664201259613037
      ],
      "min": [
        -2.421823024749756,
        -1.5586438179016113,
        -3.093623161315918
      ],
      "type": "VEC3"
    },
    {
      "bufferView": 2,
      "byteOffset": 15159540,
      "componentType": 5126,
      "count": 62301,
      "max": [
        0.9999991655349731,
        0.9999909996986389,
        0.9999534487724304
      ],
      "min": [
        -0.9999903440475464,
        -0.999997615814209,
        -0.999987006187439
      ],
      "type": "VEC3"
    },
    {
      "bufferView": 1,
      "byteOffset": 4803976,
      "componentType": 5126,
      "count": 62301,
      "max": [
        0.9995958805084229,
        0.9995300769805908
      ],
      "min": [
        0.0007141002570278943,
        0.000355213152943179
      ],
      "type": "VEC2"
    },
    {
      "bufferView": 0,
      "byteOffset": 9500856,
      "componentType": 5125,
      "count": 152745,
      "type": "SCALAR"
    }
  ],
  "asset": {
    "extras": {
      "author": "ScanMe (https://sketchfab.com/ScanMe)",
      "license": "CC-BY-NC-SA-4.0 (http://creativecommons.org/licenses/by-nc-sa/4.0/)",
      "source": "https://sketchfab.com/3d-models/forest-hut-e17b4bbf60e24d27beb4c0e69e3e4768",
      "title": "Forest Hut"
    },
    "generator": "Sketchfab-15.12.0",
    "version": "2.0"
  },
  "bufferViews": [
    {
      "buffer": 0,
      "byteLength": 10111836,
      "name": "floatBufferViews",
      "target": 34963
    },
    {
      "buffer": 0,
      "byteLength": 5302384,
      "byteOffset": 10111836,
      "byteStride": 8,
      "name": "floatBufferViews",
      "target": 34962
    },
    {
      "buffer": 0,
      "byteLength": 15907152,
      "byteOffset": 15414220,
      "byteStride": 12,
      "name": "floatBufferViews",
      "target": 34962
    }
  ],
  "buffers": [
    {
      "byteLength": 31321372,
      "uri": "scene.bin"
    }
  ],
  "images": [
    {
      "uri": "textures/material_0_baseColor.jpeg"
    },
    {
      "uri": "textures/material_1_baseColor.jpeg"
    }
  ],
  "materials": [
    {
      "name": "material_0",
      "pbrMetallicRoughness": {
        "baseColorTexture": {
          "index": 0
        },
        "metallicFactor": 0.0
      }
    },
    {
      "name": "material_1",
      "pbrMetallicRoughness": {
        "baseColorTexture": {
          "index": 1
        },
        "metallicFactor": 0.0
      }
    }
  ],
  "meshes": [
    {
      "name": "Object_0",
      "primitives": [
        {
          "attributes": {
            "NORMAL": 1,
            "POSITION": 0,
            "TEXCOORD_0": 2
          },
          "indices": 3,
          "material": 0,
          "mode": 4
        }
      ]
    },
    {
      "name": "Object_1",
      "primitives": [
        {
          "attributes": {
            "NORMAL": 5,
            "POSITION": 4,
            "TEXCOORD_0": 6
          },
          "indices": 7,
          "material": 0,
          "mode": 4
        }
      ]
    },
    {
      "name": "Object_2",
      "primitives": [
        {
          "attributes": {
            "NORMAL": 9,
            "POSITION": 8,
            "TEXCOORD_0": 10
          },
          "indices": 11,
          "material": 0,
          "mode": 4
        }
      ]
    },
    {
      "name": "Object_3",
      "primitives": [
        {
          "attributes": {
            "NORMAL": 13,
            "POSITION": 12,
            "TEXCOORD_0": 14
          },
          "indices": 15,
          "material": 0,
          "mode": 4
        }
      ]
    },
    {
      "name": "Object_4",
      "primitives": [
        {
          "attributes": {
            "NORMAL": 17,
            "POSITION": 16,
            "TEXCOORD_0": 18
          },
          "indices": 19,
          "material": 0,
          "mode": 4
        }
      ]
    },
    {
      "name": "Object_5",
      "primitives": [
        {
          "attributes": {
            "NORMAL": 21,
            "POSITION": 20,
            "TEXCOORD_0": 22
          },
          "indices": 23,
          "material": 0,
          "mode": 4
        }
      ]
    },
    {
      "name": "Object_6",
      "primitives": [
        {
          "attributes": {
            "NORMAL": 25,
            "POSITION": 24,
            "TEXCOORD_0": 26
          },
          "indices": 27,
          "material": 1,
          "mode": 4
        }
      ]
    },
    {
      "name": "Object_7",
      "primitives": [
        {
          "attributes": {
            "NORMAL": 29,
            "POSITION": 28,
            "TEXCOORD_0": 30
          },
          "indices": 31,
          "material": 1,
          "mode": 4
        }
      ]
    },
    {
      "name": "Object_8",
      "primitives": [
        {
          "attributes": {
            "NORMAL": 33,
            "POSITION": 32,
            "TEXCOORD_0": 34
          },
          "indices": 35,
          "material": 1,
          "mode": 4
        }
      ]
    },
    {
      "name": "Object_9",
      "primitives": [
        {
          "attributes": {
            "NORMAL": 37,
            "POSITION": 36,
            "TEXCOORD_0": 38
          },
          "indices": 39,
          "material": 1,
          "mode": 4
        }
      ]
    },
    {
      "name": "Object_10",
      "primitives": [
        {
          "attributes": {
            "NORMAL": 41,
            "POSITION": 40,
            "TEXCOORD_0": 42
          },
          "indices": 43,
          "material": 1,
          "mode": 4
        }
      ]
    }
  ],
  "nodes": [
    {
      "children": [
        1
      ],
      "matrix": [
        1.0,
        0.0,
        0.0,
        0.0,
        0.0,
        2.220446049250313e-16,
        -1.0,
        0.0,
        0.0,
        1.0,
        2.220446049250313e-16,
        0.0,
        0.0,
        0.0,
        0.0,
        1.0
      ],
      "name": "Sketchfab_model"
    },
    {
      "children": [
        2
      ],
      "name": "root"
    },
    {
      "children": [
        3
      ],
      "matrix": [
        1.0,
        0.0,
        0.0,
        0.0,
        0.0,
        2.220446049250313e-16,
        1.0,
        0.0,
        0.0,
        -1.0,
        2.220446049250313e-16,
        0.0,
        0.0,
        0.0,
        0.0,
        1.0
      ],
      "name": "GLTF_SceneRootNode"
    },
    {
      "children": [
        4,
        5,
        6,
        7,
        8,
        9,
        10,
        11,
        12,
        13,
        14
      ],
      "name": "_0"
    },
    {
      "mesh": 0,
      "name": "Object_4"
    },
    {
      "mesh": 1,
      "name": "Object_5"
    },
    {
      "mesh": 2,
      "name": "Object_6"
    },
    {
      "mesh": 3,
      "name": "Object_7"
    },
    {
      "mesh": 4,
      "name": "Object_8"
    },
    {
      "mesh": 5,
      "name": "Object_9"
    },
    {
      "mesh": 6,
      "name": "Object_10"
    },
    {
      "mesh": 7,
      "name": "Object_11"
    },
    {
      "mesh": 8,
      "name": "Object_12"
    },
    {
      "mesh": 9,
      "name": "Object_13"
    },
    {
      "mesh": 10,
      "name": "Object_14"
    }
  ],
  "samplers": [
    {
      "magFilter": 9729,
      "minFilter": 9987,
      "wrapS": 10497,
      "wrapT": 10497
    }
  ],
  "scene": 0,
  "scenes": [
    {
      "name": "Sketchfab_Scene",
      "nodes": [
        0
      ]
    }
  ],
  "textures": [
    {
      "sampler": 0,
      "source": 0
    },
    {
      "sampler": 0,
      "source": 1
    }
  ]
}
