{
  "accessors": [
    {
      "bufferView": 2,
      "componentType": 5126,
      "count": 325,
      "max": [
        1.5199326276779175,
        0.3624977469444275,
        0.3748660683631897
      ],
      "min": [
        -1.5257906913757324,
        -0.02477446012198925,
        -0.05259568244218826
      ],
      "type": "VEC3"
    },
    {
      "bufferView": 2,
      "byteOffset": 3900,
      "componentType": 5126,
      "count": 325,
      "max": [
        0.7404564023017883,
        0.9855477809906006,
        0.9937417507171631
      ],
      "min": [
        -0.7490006685256958,
        -0.9859362840652466,
        -0.9938580393791199
      ],
      "type": "VEC3"
    },
    {
      "bufferView": 1,
      "componentType": 5126,
      "count": 325,
      "max": [
        1.0,
        1.0
      ],
      "min": [
        0.0,
        0.0
      ],
      "type": "VEC2"
    },
    {
      "bufferView": 0,
      "componentType": 5125,
      "count": 1728,
      "type": "SCALAR"
    }
  ],
  "asset": {
    "extras": {
      "author": "FratorIX (https://sketchfab.com/mancusofrancesco18)",
      "license": "CC-BY-4.0 (http://creativecommons.org/licenses/by/4.0/)",
      "source": "https://sketchfab.com/3d-models/thunder-5628e538d9e34f32a3d05a6b076ade07",
      "title": "Thunder"
    },
    "generator": "Sketchfab-12.68.0",
    "version": "2.0"
  },
  "bufferViews": [
    {
      "buffer": 0,
      "byteLength": 6912,
      "name": "floatBufferViews",
      "target": 34963
    },
    {
      "buffer": 0,
      "byteLength": 2600,
      "byteOffset": 6912,
      "byteStride": 8,
      "name": "floatBufferViews",
      "target": 34962
    },
    {
      "buffer": 0,
      "byteLength": 7800,
      "byteOffset": 9512,
      "byteStride": 12,
      "name": "floatBufferViews",
      "target": 34962
    }
  ],
  "buffers": [
    {
      "byteLength": 17312,
      "uri": "scene.bin"
    }
  ],
  "images": [
    {
      "uri": "textures/Material.001_metallicRoughness.png"
    }
  ],
  "materials": [
    {
      "doubleSided": true,
      "name": "Material.001",
      "pbrMetallicRoughness": {
        "baseColorFactor": [
          0.3749243578,
          1.0,
          0.9787543575,
          1.0
        ],
        "metallicRoughnessTexture": {
          "index": 0
        },
        "roughnessFactor": 0.8040408206
      }
    }
  ],
  "meshes": [
    {
      "name": "BezierCurve_Material.001_0",
      "primitives": [
        {
          "attributes": {
            "NORMAL": 1,
            "POSITION": 0,
            "TEXCOORD_0": 2
          },
          "indices": 3,
          "material": 0,
          "mode": 4
        }
      ]
    }
  ],
  "nodes": [
    {
      "children": [
        1
      ],
      "matrix": [
        1.0,
        0.0,
        0.0,
        0.0,
        0.0,
        2.220446049250313e-16,
        -1.0,
        0.0,
        0.0,
        1.0,
        2.220446049250313e-16,
        0.0,
        0.0,
        0.0,
        0.0,
        1.0
      ],
      "name": "Sketchfab_model"
    },
    {
      "children": [
        2
      ],
      "matrix": [
        0.009999999776482582,
        0.0,
        0.0,
        0.0,
        0.0,
        0.0,
        0.009999999776482582,
        0.0,
        0.0,
        -0.009999999776482582,
        0.0,
        0.0,
        0.0,
        0.0,
        0.0,
        1.0
      ],
      "name": "Thunder.fbx"
    },
    {
      "children": [
        3,
        5
      ],
      "name": "RootNode"
    },
    {
      "children": [
        4
      ],
      "matrix": [
        -2.380058030642079e-06,
        -54.449378967285014,
        3.2454355046995505e-06,
        0.0,
        -8.870929970985874e-06,
        -3.2454351178134435e-06,
        -54.44937896728433,
        0.0,
        54.44937896728438,
        -2.380058559587928e-06,
        -8.870929825903584e-06,
        0.0,
        0.0,
        0.0,
        0.0,
        1.0
      ],
      "name": "BezierCurve"
    },
    {
      "mesh": 0,
      "name": "BezierCurve_Material.001_0"
    },
    {
      "children": [
        6
      ],
      "matrix": [
        7.348970061073567,
        -34.64129745756471,
        -93.51990777100866,
        0.0,
        1.8869038243078617,
        93.80498498879281,
        -34.5986182557941,
        0.0,
        99.71175331972695,
        0.7780114403006522,
        7.547348804954558,
        0.0,
        -42.503883361816406,
        198.2165985107422,
        509.54705810546875,
        1.0
      ],
      "name": "Camera"
    },
    {
      "name": "Object_6"
    }
  ],
  "samplers": [
    {
      "magFilter": 9729,
      "minFilter": 9987,
      "wrapS": 10497,
      "wrapT": 10497
    }
  ],
  "scene": 0,
  "scenes": [
    {
      "name": "Sketchfab_Scene",
      "nodes": [
        0
      ]
    }
  ],
  "textures": [
    {
      "sampler": 0,
      "source": 0
    }
  ]
}
