{
  "accessors": [
    {
      "bufferView": 2,
      "componentType": 5126,
      "count": 611,
      "max": [
        0.22438214719295502,
        0.42019277811050415,
        0.03452541306614876
      ],
      "min": [
        -0.20242568850517273,
        0.003594805719330907,
        -0.03452541306614876
      ],
      "type": "VEC3"
    },
    {
      "bufferView": 2,
      "byteOffset": 7332,
      "componentType": 5126,
      "count": 611,
      "max": [
        0.5338284373283386,
        1.0,
        1.0
      ],
      "min": [
        -1.0,
        -0.9986708760261536,
        -1.0
      ],
      "type": "VEC3"
    },
    {
      "bufferView": 3,
      "componentType": 5126,
      "count": 611,
      "max": [
        0.9995920062065125,
        0.9994893074035645,
        1.0,
        1.0
      ],
      "min": [
        -1.0,
        -1.0,
        -1.0,
        -1.0
      ],
      "type": "VEC4"
    },
    {
      "bufferView": 1,
      "componentType": 5126,
      "count": 611,
      "max": [
        0.9958092570304871,
        0.99638831615448
      ],
      "min": [
        0.27473944425582886,
        0.0036804866977036
      ],
      "type": "VEC2"
    },
    {
      "bufferView": 0,
      "componentType": 5125,
      "count": 1998,
      "type": "SCALAR"
    },
    {
      "bufferView": 2,
      "byteOffset": 14664,
      "componentType": 5126,
      "count": 298,
      "max": [
        0.3851998448371887,
        0.1576138585805893,
        0.03652581572532654
      ],
      "min": [
        -0.37761443853378296,
        -0.005546641070395708,
        -0.03652586415410042
      ],
      "type": "VEC3"
    },
    {
      "bufferView": 2,
      "byteOffset": 18240,
      "componentType": 5126,
      "count": 298,
      "max": [
        0.9944840669631958,
        0.9999980926513672,
        0.9999999403953552
      ],
      "min": [
        -0.9999960660934448,
        -0.9999982714653015,
        -1.0
      ],
      "type": "VEC3"
    },
    {
      "bufferView": 3,
      "byteOffset": 9776,
      "componentType": 5126,
      "count": 298,
      "max": [
        0.9999949932098389,
        1.0,
        1.0,
        1.0
      ],
      "min": [
        -0.5492144227027893,
        -1.0,
        -0.9999998807907104,
        1.0
      ],
      "type": "VEC4"
    },
    {
      "bufferView": 1,
      "byteOffset": 4888,
      "componentType": 5126,
      "count": 298,
      "max": [
        0.8896740078926086,
        0.9937038421630859
      ],
      "min": [
        0.009046314284205437,
        0.006894107908010483
      ],
      "type": "VEC2"
    },
    {
      "bufferView": 0,
      "byteOffset": 7992,
      "componentType": 5125,
      "count": 1440,
      "type": "SCALAR"
    },
    {
      "bufferView": 2,
      "byteOffset": 21816,
      "componentType": 5126,
      "count": 392,
      "max": [
        0.028649404644966125,
        0.04281897097826004,
        0.34554430842399597
      ],
      "min": [
        -0.054710179567337036,
        -0.04157715663313866,
        0.06416218727827072
      ],
      "type": "VEC3"
    },
    {
      "bufferView": 2,
      "byteOffset": 26520,
      "componentType": 5126,
      "count": 392,
      "max": [
        0.9349493980407715,
        0.8816084265708923,
        0.9940742254257202
      ],
      "min": [
        -0.9308266639709473,
        -0.8782481551170349,
        -0.9942494034767151
      ],
      "type": "VEC3"
    },
    {
      "bufferView": 3,
      "byteOffset": 14544,
      "componentType": 5126,
      "count": 392,
      "max": [
        0.9895105957984924,
        0.9912444949150085,
        0.9254406094551086,
        1.0
      ],
      "min": [
        -0.988523006439209,
        -0.9910503625869751,
        -0.9045347571372986,
        1.0
      ],
      "type": "VEC4"
    },
    {
      "bufferView": 1,
      "byteOffset": 7272,
      "componentType": 5126,
      "count": 392,
      "max": [
        0.6301280856132507,
        0.9324569702148438
      ],
      "min": [
        0.3072303533554077,
        0.11578311026096344
      ],
      "type": "VEC2"
    },
    {
      "bufferView": 0,
      "byteOffset": 13752,
      "componentType": 5125,
      "count": 1656,
      "type": "SCALAR"
    }
  ],
  "asset": {
    "extras": {
      "author": "Sam (https://sketchfab.com/SGold8556)",
      "license": "CC-BY-4.0 (http://creativecommons.org/licenses/by/4.0/)",
      "source": "https://sketchfab.com/3d-models/viking-axe-af05a0aa00f24016ab2d9b959ca8ab4b",
      "title": "Viking Axe"
    },
    "generator": "Sketchfab-12.66.0",
    "version": "2.0"
  },
  "bufferViews": [
    {
      "buffer": 0,
      "byteLength": 20376,
      "name": "floatBufferViews",
      "target": 34963
    },
    {
      "buffer": 0,
      "byteLength": 10408,
      "byteOffset": 20376,
      "byteStride": 8,
      "name": "floatBufferViews",
      "target": 34962
    },
    {
      "buffer": 0,
      "byteLength": 31224,
      "byteOffset": 30784,
      "byteStride": 12,
      "name": "floatBufferViews",
      "target": 34962
    },
    {
      "buffer": 0,
      "byteLength": 20816,
      "byteOffset": 62008,
      "byteStride": 16,
      "name": "floatBufferViews",
      "target": 34962
    }
  ],
  "buffers": [
    {
      "byteLength": 82824,
      "uri": "scene.bin"
    }
  ],
  "images": [
    {
      "uri": "textures/TT_checker_1024x1024_UV_GRID_baseColor.jpeg"
    },
    {
      "uri": "textures/TT_checker_1024x1024_UV_GRID_metallicRoughness.png"
    },
    {
      "uri": "textures/TT_checker_1024x1024_UV_GRID_normal.png"
    }
  ],
  "materials": [
    {
      "doubleSided": true,
      "name": "TT_checker_1024x1024_UV_GRID",
      "normalTexture": {
        "index": 2
      },
      "occlusionTexture": {
        "index": 1
      },
      "pbrMetallicRoughness": {
        "baseColorTexture": {
          "index": 0
        },
        "metallicRoughnessTexture": {
          "index": 1
        }
      }
    }
  ],
  "meshes": [
    {
      "name": "1_low_TT_checker_1024x1024_UV_GRID_0",
      "primitives": [
        {
          "attributes": {
            "NORMAL": 1,
            "POSITION": 0,
            "TANGENT": 2,
            "TEXCOORD_0": 3
          },
          "indices": 4,
          "material": 0,
          "mode": 4
        }
      ]
    },
    {
      "name": "3_low_TT_checker_1024x1024_UV_GRID_0",
      "primitives": [
        {
          "attributes": {
            "NORMAL": 6,
            "POSITION": 5,
            "TANGENT": 7,
            "TEXCOORD_0": 8
          },
          "indices": 9,
          "material": 0,
          "mode": 4
        }
      ]
    },
    {
      "name": "2_low_TT_checker_1024x1024_UV_GRID_0",
      "primitives": [
        {
          "attributes": {
            "NORMAL": 11,
            "POSITION": 10,
            "TANGENT": 12,
            "TEXCOORD_0": 13
          },
          "indices": 14,
          "material": 0,
          "mode": 4
        }
      ]
    }
  ],
  "nodes": [
    {
      "children": [
        1
      ],
      "matrix": [
        0.9349936842918396,
        -0.06718686968088158,
        0.3482424020767212,
        0.0,
        0.25880345702171326,
        -0.5421226620674131,
        -0.7994521856307985,
        0.0,
        0.24250277876853943,
        0.8376090526580812,
        -0.4894930720329283,
        0.0,
        -0.1890537589788437,
        0.27104419469833374,
        0.09846709668636328,
        1.0
      ],
      "name": "Sketchfab_model"
    },
    {
      "children": [
        2
      ],
      "matrix": [
        1.0,
        0.0,
        0.0,
        0.0,
        0.0,
        0.0,
        1.0,
        0.0,
        0.0,
        -1.0,
        0.0,
        0.0,
        0.0,
        0.0,
        0.0,
        1.0
      ],
      "name": "e341ea25b946465aa8dc2ff4a498d394.fbx"
    },
    {
      "children": [
        3,
        5,
        7
      ],
      "name": "RootNode"
    },
    {
      "children": [
        4
      ],
      "matrix": [
        100.0,
        0.0,
        0.0,
        0.0,
        0.0,
        99.99999999999866,
        1.6292067073209114e-05,
        0.0,
        0.0,
        -1.6292067073209114e-05,
        99.99999999999866,
        0.0,
        0.0,
        0.0,
        0.0,
        1.0
      ],
      "name": "1_low"
    },
    {
      "mesh": 0,
      "name": "1_low_TT_checker_1024x1024_UV_GRID_0"
    },
    {
      "children": [
        6
      ],
      "matrix": [
        1.9470718859437852e-05,
        -99.99999999999811,
        8.708890386141436e-13,
        0.0,
        99.99999999999677,
        1.9470718859437852e-05,
        1.6292067073209118e-05,
        0.0,
        -1.6292067073208975e-05,
        -2.301293540150256e-12,
        99.99999999999866,
        0.0,
        -14.309442520141602,
        -1.4839421510696411,
        -1.9938073592129513e-07,
        1.0
      ],
      "name": "3_low"
    },
    {
      "mesh": 1,
      "name": "3_low_TT_checker_1024x1024_UV_GRID_0"
    },
    {
      "children": [
        8
      ],
      "matrix": [
        100.0,
        0.0,
        0.0,
        0.0,
        0.0,
        -1.629206793918314e-05,
        -99.99999999999868,
        0.0,
        0.0,
        99.99999999999868,
        -1.629206793918314e-05,
        0.0,
        0.0,
        0.0,
        0.0,
        1.0
      ],
      "name": "2_low"
    },
    {
      "mesh": 2,
      "name": "2_low_TT_checker_1024x1024_UV_GRID_0"
    }
  ],
  "samplers": [
    {
      "magFilter": 9729,
      "minFilter": 9987,
      "wrapS": 10497,
      "wrapT": 10497
    }
  ],
  "scene": 0,
  "scenes": [
    {
      "name": "Sketchfab_Scene",
      "nodes": [
        0
      ]
    }
  ],
  "textures": [
    {
      "sampler": 0,
      "source": 0
    },
    {
      "sampler": 0,
      "source": 1
    },
    {
      "sampler": 0,
      "source": 2
    }
  ]
}
