{
  "accessors": [
    {
      "bufferView": 2,
      "componentType": 5126,
      "count": 5736,
      "max": [
        1.350106954574585,
        1.7473139762878418,
        -0.045492999255657196
      ],
      "min": [
        -1.5733189582824707,
        -1.3355059623718262,
        -0.04549400135874748
      ],
      "type": "VEC3"
    },
    {
      "bufferView": 2,
      "byteOffset": 68832,
      "componentType": 5126,
      "count": 5736,
      "max": [
        0.05100221931934357,
        0.018200168386101723,
        1.0
      ],
      "min": [
        -0.009999718517065048,
        -0.017600765451788902,
        -1.0
      ],
      "type": "VEC3"
    },
    {
      "bufferView": 1,
      "componentType": 5126,
      "count": 5736,
      "max": [
        0.8166670203208923,
        0.6615790128707886
      ],
      "min": [
        0.6927909851074219,
        0.5771409869194031
      ],
      "type": "VEC2"
    },
    {
      "bufferView": 0,
      "componentType": 5125,
      "count": 8787,
      "type": "SCALAR"
    },
    {
      "bufferView": 2,
      "byteOffset": 137664,
      "componentType": 5126,
      "count": 6089,
      "max": [
        1.350106954574585,
        1.7473139762878418,
        0.702830970287323
      ],
      "min": [
        -1.5733189582824707,
        -1.3355059623718262,
        -0.04549400135874748
      ],
      "type": "VEC3"
    },
    {
      "bufferView": 2,
      "byteOffset": 210732,
      "componentType": 5126,
      "count": 6089,
      "max": [
        0.9999937415122986,
        0.999983549118042,
        0.006490351632237434
      ],
      "min": [
        -0.9999894499778748,
        -0.9999960064888,
        -0.006348537281155586
      ],
      "type": "VEC3"
    },
    {
      "bufferView": 1,
      "byteOffset": 45888,
      "componentType": 5126,
      "count": 6089,
      "max": [
        0.9868680238723755,
        0.9121919870376587
      ],
      "min": [
        0.03326699882745743,
        0.09930600225925446
      ],
      "type": "VEC2"
    },
    {
      "bufferView": 0,
      "byteOffset": 35148,
      "componentType": 5125,
      "count": 13197,
      "type": "SCALAR"
    },
    {
      "bufferView": 2,
      "byteOffset": 283800,
      "componentType": 5126,
      "count": 65532,
      "max": [
        1.314404010772705,
        2.226125955581665,
        5.602723121643066
      ],
      "min": [
        -1.4423120021820068,
        -1.1444859504699707,
        0.08418799936771393
      ],
      "type": "VEC3"
    },
    {
      "bufferView": 2,
      "byteOffset": 1070184,
      "componentType": 5126,
      "count": 65532,
      "max": [
        0.999983549118042,
        0.999997615814209,
        0.9999911785125732
      ],
      "min": [
        -0.9999862909317017,
        -0.9999327659606934,
        -0.9999165534973145
      ],
      "type": "VEC3"
    },
    {
      "bufferView": 3,
      "componentType": 5126,
      "count": 65532,
      "max": [
        0.9999862313270569,
        0.9999946355819702,
        0.9999926686286926,
        1.0
      ],
      "min": [
        -0.9999755620956421,
        -0.9999502897262573,
        -0.9999956488609314,
        -1.0
      ],
      "type": "VEC4"
    },
    {
      "bufferView": 1,
      "byteOffset": 94600,
      "componentType": 5126,
      "count": 65532,
      "max": [
        0.9999909996986389,
        0.9994750022888184
      ],
      "min": [
        0.00012599999899975955,
        0.0
      ],
      "type": "VEC2"
    },
    {
      "bufferView": 0,
      "byteOffset": 87936,
      "componentType": 5125,
      "count": 312498,
      "type": "SCALAR"
    },
    {
      "bufferView": 2,
      "byteOffset": 1856568,
      "componentType": 5126,
      "count": 65532,
      "max": [
        0.8645899891853333,
        1.6539479494094849,
        5.159656047821045
      ],
      "min": [
        -1.473438024520874,
        -0.9370819926261902,
        0.03491999953985214
      ],
      "type": "VEC3"
    },
    {
      "bufferView": 2,
      "byteOffset": 2642952,
      "componentType": 5126,
      "count": 65532,
      "max": [
        0.9998902082443237,
        0.9999854564666748,
        0.9999990463256836
      ],
      "min": [
        -0.9997163414955139,
        -0.9999738931655884,
        -0.9999196529388428
      ],
      "type": "VEC3"
    },
    {
      "bufferView": 3,
      "byteOffset": 1048512,
      "componentType": 5126,
      "count": 65532,
      "max": [
        0.9999292492866516,
        0.9999984502792358,
        0.9999354481697083,
        1.0
      ],
      "min": [
        -0.9998654127120972,
        -0.999559760093689,
        -0.9999662637710571,
        -1.0
      ],
      "type": "VEC4"
    },
    {
      "bufferView": 1,
      "byteOffset": 618856,
      "componentType": 5126,
      "count": 65532,
      "max": [
        0.9994750022888184,
        0.9995070099830627
      ],
      "min": [
        0.0015059999423101544,
        6.0999998822808266e-05
      ],
      "type": "VEC2"
    },
    {
      "bufferView": 0,
      "byteOffset": 1337928,
      "componentType": 5125,
      "count": 342900,
      "type": "SCALAR"
    },
    {
      "bufferView": 2,
      "byteOffset": 3429336,
      "componentType": 5126,
      "count": 65532,
      "max": [
        1.3461519479751587,
        1.4785579442977905,
        1.013198971748352
      ],
      "min": [
        -1.1768560409545898,
        -1.2939900159835815,
        0.0057310000993311405
      ],
      "type": "VEC3"
    },
    {
      "bufferView": 2,
      "byteOffset": 4215720,
      "componentType": 5126,
      "count": 65532,
      "max": [
        0.9999637603759766,
        0.9999207258224487,
        0.9999990463256836
      ],
      "min": [
        -0.9999583959579468,
        -0.9999903440475464,
        -0.9943463206291199
      ],
      "type": "VEC3"
    },
    {
      "bufferView": 3,
      "byteOffset": 2097024,
      "componentType": 5126,
      "count": 65532,
      "max": [
        0.9999982714653015,
        0.9999755024909973,
        0.9999997615814209,
        1.0
      ],
      "min": [
        -0.9997685551643372,
        -0.9994562864303589,
        -0.9999216794967651,
        -1.0
      ],
      "type": "VEC4"
    },
    {
      "bufferView": 1,
      "byteOffset": 1143112,
      "componentType": 5126,
      "count": 65532,
      "max": [
        0.9847599864006042,
        0.9943600296974182
      ],
      "min": [
        0.0024679999332875013,
        0.0004189999890513718
      ],
      "type": "VEC2"
    },
    {
      "bufferView": 0,
      "byteOffset": 2709528,
      "componentType": 5125,
      "count": 356397,
      "type": "SCALAR"
    },
    {
      "bufferView": 2,
      "byteOffset": 5002104,
      "componentType": 5126,
      "count": 65532,
      "max": [
        1.3463029861450195,
        1.7462259531021118,
        1.7700129747390747
      ],
      "min": [
        -1.5719490051269531,
        -1.3353840112686157,
        -0.02433199994266033
      ],
      "type": "VEC3"
    },
    {
      "bufferView": 2,
      "byteOffset": 5788488,
      "componentType": 5126,
      "count": 65532,
      "max": [
        0.9999241828918457,
        0.9999490976333618,
        0.9999996423721313
      ],
      "min": [
        -0.9999372959136963,
        -0.9999903440475464,
        -0.9999814033508301
      ],
      "type": "VEC3"
    },
    {
      "bufferView": 3,
      "byteOffset": 3145536,
      "componentType": 5126,
      "count": 65532,
      "max": [
        0.9999638199806213,
        0.9999837279319763,
        0.9997643232345581,
        1.0
      ],
      "min": [
        -0.9999977946281433,
        -0.9998974204063416,
        -0.9999330639839172,
        -1.0
      ],
      "type": "VEC4"
    },
    {
      "bufferView": 1,
      "byteOffset": 1667368,
      "componentType": 5126,
      "count": 65532,
      "max": [
        0.9899479746818542,
        0.9992070198059082
      ],
      "min": [
        0.002747999969869852,
        0.00016599999798927456
      ],
      "type": "VEC2"
    },
    {
      "bufferView": 0,
      "byteOffset": 4135116,
      "componentType": 5125,
      "count": 347958,
      "type": "SCALAR"
    },
    {
      "bufferView": 2,
      "byteOffset": 6574872,
      "componentType": 5126,
      "count": 65532,
      "max": [
        0.9194880127906799,
        1.7437560558319092,
        4.351761817932129
      ],
      "min": [
        -1.5618480443954468,
        -0.4049220085144043,
        0.08401600271463394
      ],
      "type": "VEC3"
    },
    {
      "bufferView": 2,
      "byteOffset": 7361256,
      "componentType": 5126,
      "count": 65532,
      "max": [
        0.9999804496765137,
        0.9999872446060181,
        0.9999752044677734
      ],
      "min": [
        -0.999987006187439,
        -0.999993085861206,
        -0.9999814033508301
      ],
      "type": "VEC3"
    },
    {
      "bufferView": 3,
      "byteOffset": 4194048,
      "componentType": 5126,
      "count": 65532,
      "max": [
        0.9999895691871643,
        0.9999876022338867,
        0.9999999403953552,
        1.0
      ],
      "min": [
        -0.9999953508377075,
        -0.9999551773071289,
        -0.999911367893219,
        -1.0
      ],
      "type": "VEC4"
    },
    {
      "bufferView": 1,
      "byteOffset": 2191624,
      "componentType": 5126,
      "count": 65532,
      "max": [
        0.9994890093803406,
        0.9991199970245361
      ],
      "min": [
        0.0014730000402778387,
        0.0006409999914467335
      ],
      "type": "VEC2"
    },
    {
      "bufferView": 0,
      "byteOffset": 5526948,
      "componentType": 5125,
      "count": 345951,
      "type": "SCALAR"
    },
    {
      "bufferView": 2,
      "byteOffset": 8147640,
      "componentType": 5126,
      "count": 52035,
      "max": [
        1.275588035583496,
        1.4343429803848267,
        4.952002048492432
      ],
      "min": [
        -1.211346983909607,
        -0.9043350219726563,
        2.691175937652588
      ],
      "type": "VEC3"
    },
    {
      "bufferView": 2,
      "byteOffset": 8772060,
      "componentType": 5126,
      "count": 52035,
      "max": [
        0.9999897480010986,
        0.9999990463256836,
        0.9999996423721313
      ],
      "min": [
        -0.9999535083770752,
        -0.9999803304672241,
        -0.9999576807022095
      ],
      "type": "VEC3"
    },
    {
      "bufferView": 3,
      "byteOffset": 5242560,
      "componentType": 5126,
      "count": 52035,
      "max": [
        0.9999908208847046,
        0.9998935461044312,
        0.9999735951423645,
        1.0
      ],
      "min": [
        -0.9999622106552124,
        -0.9999234080314636,
        -0.9999629855155945,
        -1.0
      ],
      "type": "VEC4"
    },
    {
      "bufferView": 1,
      "byteOffset": 2715880,
      "componentType": 5126,
      "count": 52035,
      "max": [
        0.9996150135993958,
        0.9995070099830627
      ],
      "min": [
        2.9999999242136255e-05,
        7.999999979801942e-06
      ],
      "type": "VEC2"
    },
    {
      "bufferView": 0,
      "byteOffset": 6910752,
      "componentType": 5125,
      "count": 254775,
      "type": "SCALAR"
    }
  ],
  "asset": {
    "extras": {
      "author": "Lassi Kaukonen (https://sketchfab.com/thesidekick)",
      "license": "CC-BY-4.0 (http://creativecommons.org/licenses/by/4.0/)",
      "source": "https://sketchfab.com/3d-models/snow-covered-deadwood-269e5c5fd2bf44f48f180f76d2d77439",
      "title": "Snow covered deadwood"
    },
    "generator": "Sketchfab-12.68.0",
    "version": "2.0"
  },
  "bufferViews": [
    {
      "buffer": 0,
      "byteLength": 7929852,
      "name": "floatBufferViews",
      "target": 34963
    },
    {
      "buffer": 0,
      "byteLength": 3132160,
      "byteOffset": 7929852,
      "byteStride": 8,
      "name": "floatBufferViews",
      "target": 34962
    },
    {
      "buffer": 0,
      "byteLength": 9396480,
      "byteOffset": 11062012,
      "byteStride": 12,
      "name": "floatBufferViews",
      "target": 34962
    },
    {
      "buffer": 0,
      "byteLength": 6075120,
      "byteOffset": 20458492,
      "byteStride": 16,
      "name": "floatBufferViews",
      "target": 34962
    }
  ],
  "buffers": [
    {
      "byteLength": 26533612,
      "uri": "scene.bin"
    }
  ],
  "images": [
    {
      "uri": "textures/Deadwood_baseColor.jpeg"
    },
    {
      "uri": "textures/Deadwood_metallicRoughness.png"
    },
    {
      "uri": "textures/Deadwood_normal.png"
    }
  ],
  "materials": [
    {
      "doubleSided": true,
      "name": "Base",
      "pbrMetallicRoughness": {
        "baseColorFactor": [
          0.080013,
          0.080013,
          0.080013,
          1.0
        ],
        "metallicFactor": 0.0
      }
    },
    {
      "doubleSided": true,
      "name": "Deadwood",
      "normalTexture": {
        "index": 2
      },
      "occlusionTexture": {
        "index": 1
      },
      "pbrMetallicRoughness": {
        "baseColorTexture": {
          "index": 0
        },
        "metallicFactor": 0.0,
        "metallicRoughnessTexture": {
          "index": 1
        }
      }
    }
  ],
  "meshes": [
    {
      "name": "Object_0",
      "primitives": [
        {
          "attributes": {
            "NORMAL": 1,
            "POSITION": 0,
            "TEXCOORD_0": 2
          },
          "indices": 3,
          "material": 0,
          "mode": 4
        }
      ]
    },
    {
      "name": "Object_1",
      "primitives": [
        {
          "attributes": {
            "NORMAL": 5,
            "POSITION": 4,
            "TEXCOORD_0": 6
          },
          "indices": 7,
          "material": 0,
          "mode": 4
        }
      ]
    },
    {
      "name": "Object_2",
      "primitives": [
        {
          "attributes": {
            "NORMAL": 9,
            "POSITION": 8,
            "TANGENT": 10,
            "TEXCOORD_0": 11
          },
          "indices": 12,
          "material": 1,
          "mode": 4
        }
      ]
    },
    {
      "name": "Object_3",
      "primitives": [
        {
          "attributes": {
            "NORMAL": 14,
            "POSITION": 13,
            "TANGENT": 15,
            "TEXCOORD_0": 16
          },
          "indices": 17,
          "material": 1,
          "mode": 4
        }
      ]
    },
    {
      "name": "Object_4",
      "primitives": [
        {
          "attributes": {
            "NORMAL": 19,
            "POSITION": 18,
            "TANGENT": 20,
            "TEXCOORD_0": 21
          },
          "indices": 22,
          "material": 1,
          "mode": 4
        }
      ]
    },
    {
      "name": "Object_5",
      "primitives": [
        {
          "attributes": {
            "NORMAL": 24,
            "POSITION": 23,
            "TANGENT": 25,
            "TEXCOORD_0": 26
          },
          "indices": 27,
          "material": 1,
          "mode": 4
        }
      ]
    },
    {
      "name": "Object_6",
      "primitives": [
        {
          "attributes": {
            "NORMAL": 29,
            "POSITION": 28,
            "TANGENT": 30,
            "TEXCOORD_0": 31
          },
          "indices": 32,
          "material": 1,
          "mode": 4
        }
      ]
    },
    {
      "name": "Object_7",
      "primitives": [
        {
          "attributes": {
            "NORMAL": 34,
            "POSITION": 33,
            "TANGENT": 35,
            "TEXCOORD_0": 36
          },
          "indices": 37,
          "material": 1,
          "mode": 4
        }
      ]
    }
  ],
  "nodes": [
    {
      "children": [
        1
      ],
      "matrix": [
        1.0,
        0.0,
        0.0,
        0.0,
        0.0,
        2.220446049250313e-16,
        -1.0,
        0.0,
        0.0,
        1.0,
        2.220446049250313e-16,
        0.0,
        0.0,
        0.0,
        0.0,
        1.0
      ],
      "name": "Sketchfab_model"
    },
    {
      "children": [
        2,
        3,
        4,
        5,
        6,
        7,
        8,
        9
      ],
      "name": "Deadwood_SF.obj.cleaner.materialmerger.gles"
    },
    {
      "mesh": 0,
      "name": "Object_2"
    },
    {
      "mesh": 1,
      "name": "Object_3"
    },
    {
      "mesh": 2,
      "name": "Object_4"
    },
    {
      "mesh": 3,
      "name": "Object_5"
    },
    {
      "mesh": 4,
      "name": "Object_6"
    },
    {
      "mesh": 5,
      "name": "Object_7"
    },
    {
      "mesh": 6,
      "name": "Object_8"
    },
    {
      "mesh": 7,
      "name": "Object_9"
    }
  ],
  "samplers": [
    {
      "magFilter": 9729,
      "minFilter": 9987,
      "wrapS": 10497,
      "wrapT": 10497
    }
  ],
  "scene": 0,
  "scenes": [
    {
      "name": "Sketchfab_Scene",
      "nodes": [
        0
      ]
    }
  ],
  "textures": [
    {
      "sampler": 0,
      "source": 0
    },
    {
      "sampler": 0,
      "source": 1
    },
    {
      "sampler": 0,
      "source": 2
    }
  ]
}
